<?xml version="1.0" encoding="UTF-8"?>
<svg width="56px" height="72px" viewBox="0 0 56 72" version="1.1" xmlns="http://www.w3.org/2000/svg" xmlns:xlink="http://www.w3.org/1999/xlink">
    <!-- Generator: Sketch 53.2 (72643) - https://sketchapp.com -->
    <title>footer logo</title>
    <desc>Created with Sketch.</desc>
    <g id="G1-Partners" stroke="none" stroke-width="1" fill="none" fill-rule="evenodd">
        <g transform="translate(-933.000000, -6917.000000)" fill="#231F20" id="FOOTER">
            <g transform="translate(0.000000, 6893.000000)">
                <g id="footer-logo" transform="translate(933.000000, 24.000000)">
                    <path d="M6.70878505,69.661615 L6.70878505,64.3141009 C6.70878505,63.977428 6.67065421,63.7403439 6.60897196,63.600157 C6.54706542,63.4595215 6.43424299,63.3527551 6.27633645,63.2807551 C6.21353271,63.2554093 6.13906542,63.2345495 6.05742056,63.2170542 C5.9766729,63.2004561 5.88426168,63.1872224 5.78153271,63.1786991 C5.76986916,63.1786991 5.75371963,63.1766804 5.73779439,63.172643 C5.52874766,63.1437084 5.4246729,63.0963813 5.4246729,63.0320075 C5.4246729,62.9938766 5.44530841,62.9631477 5.48747664,62.9400449 C5.53031776,62.9158206 5.58796262,62.9043813 5.66041121,62.9043813 C5.69001869,62.9043813 5.76246729,62.9057271 5.87753271,62.9104374 C6.39611215,62.9413907 6.89383178,62.9559701 7.36979439,62.9559701 C7.89308411,62.9559701 8.41188785,62.9413907 8.9273271,62.9104374 C9.01166355,62.9057271 9.06549533,62.9043813 9.08657944,62.9043813 C9.15880374,62.9043813 9.2155514,62.9151477 9.25480374,62.9335402 C9.29562617,62.9517084 9.31805607,62.9808673 9.32254206,63.0189981 C9.32254206,63.083372 9.23506542,63.1327178 9.06100935,63.1661383 C9.03925234,63.1704 9.02018692,63.1742131 9.00358879,63.1786991 C8.94392523,63.1786991 8.88,63.1838579 8.81158879,63.1950729 C8.74452336,63.205615 8.66579439,63.2215402 8.57629907,63.2424 C8.38429907,63.2937645 8.24074766,63.3960449 8.16314019,63.5490168 C8.08418692,63.7026617 8.03641121,63.9576897 8.03641121,64.3141009 L8.03641121,68.8377645 C8.03641121,69.3783252 8.0166729,69.7800449 7.96127103,70.0438206 C7.90676636,70.307372 7.82085981,70.5415402 7.69771963,70.7458766 C7.44269159,71.1370542 7.10758879,71.4264 6.68859813,71.6132411 C6.27050467,71.8005308 5.74497196,71.8945121 5.11065421,71.8945121 C4.52343925,71.8945121 4.0568972,71.799185 3.71057944,71.607185 C3.36471028,71.4156336 3.1913271,71.1626243 3.1913271,70.8477084 C3.1913271,70.6992224 3.24,70.579671 3.33757009,70.4877084 C3.43603738,70.396643 3.56949533,70.3506617 3.73973832,70.3506617 C3.86265421,70.3506617 3.97054206,70.3822879 4.06205607,70.4453159 C4.15334579,70.509914 4.2244486,70.6052411 4.27491589,70.7333159 C4.42026168,71.0937645 4.56291589,71.3238953 4.7037757,71.421914 C4.84373832,71.5203813 5.04179439,71.5690542 5.29704673,71.5690542 C5.81114019,71.5690542 6.18033645,71.4342505 6.38871028,71.1632972 C6.59730841,70.8936897 6.70878505,70.3930542 6.70878505,69.661615" id="Fill-1"></path>
                    <path d="M15.4396935,67.2556486 C15.4396935,68.5568075 15.7324037,69.6056299 16.3176,70.4009944 C16.9027963,71.1965832 17.6651888,71.5944897 18.6047776,71.5944897 C19.5614131,71.5944897 20.3307589,71.2033121 20.9146093,70.4207327 C21.497114,69.6386019 21.7882542,68.5917981 21.7882542,67.2805458 C21.7882542,65.9538168 21.5045159,64.9058916 20.9363664,64.1354243 C20.369114,63.3660785 19.5997682,62.9807327 18.6296748,62.9807327 C17.681114,62.9807327 16.913114,63.3719103 16.3241047,64.1549383 C15.7344224,64.9375178 15.4396935,65.9708636 15.4396935,67.2556486 M13.8323664,67.3202467 C13.8323664,66.7112748 13.946086,66.1366206 14.1739738,65.5935925 C14.4016374,65.0512374 14.7356187,64.5589009 15.1786093,64.1170318 C15.6462729,63.6581159 16.178086,63.3068636 16.7738243,63.0675364 C17.3688897,62.8270879 18.0047776,62.7066393 18.6819364,62.7066393 C19.3656,62.7066393 20.0178617,62.8362841 20.6364785,63.096471 C21.2559925,63.3555364 21.7882542,63.7229383 22.2348336,64.1997981 C22.6174879,64.6080224 22.9027963,65.0662654 23.0896374,65.5747514 C23.2769271,66.0827888 23.3711327,66.6560972 23.3711327,67.2937794 C23.3711327,67.9238355 23.251357,68.5245084 23.0136,69.0953495 C22.7753944,69.6693308 22.4411888,70.1574056 22.0114318,70.5600224 C21.5818991,70.9653308 21.0657869,71.2833869 20.4644411,71.5175551 C19.8626467,71.7514991 19.2512075,71.8685832 18.6296748,71.8685832 C17.9704598,71.8685832 17.3525159,71.7606953 16.7738243,71.5464897 C16.195357,71.3320598 15.6850766,71.0205084 15.2427589,70.6113869 C14.7618617,70.1603215 14.4067963,69.6700037 14.1766654,69.1372935 C13.9474318,68.6061533 13.8323664,68.0000972 13.8323664,67.3202467" id="Fill-3"></path>
                    <path d="M29.9051215,68.0794766 L32.9367477,68.0794766 L31.475215,64.3022804 L29.9051215,68.0794766 Z M29.7593271,68.4114393 L29.1844486,69.8817196 C29.1294953,70.0178692 29.0877757,70.164785 29.0608598,70.2951028 C29.0334953,70.4236262 29.0189159,70.5451963 29.0189159,70.6425421 C29.0189159,70.808972 29.052785,70.948486 29.1207477,71.0552523 C29.1891589,71.1602243 29.2977196,71.2454579 29.4462056,71.3046729 C29.5316636,71.3351776 29.5958131,71.3560374 29.6382056,71.3668037 C29.6801495,71.3771215 29.7158131,71.3831776 29.7460935,71.3831776 C29.8577944,71.4 29.9300187,71.4224299 29.967028,71.4500187 C30.0024673,71.4791776 30.0210841,71.5175327 30.0210841,71.5688972 C30.0210841,71.6027664 30,71.6305794 29.956486,71.6516636 C29.9143178,71.6725234 29.8528598,71.6830654 29.7723364,71.6830654 C29.7501308,71.6830654 29.6052336,71.6714019 29.334729,71.6456075 C29.0642243,71.6200374 28.8060561,71.6063551 28.5597757,71.6063551 C28.3731589,71.6063551 28.1555888,71.6162243 27.9090841,71.6319252 C27.6616822,71.6503178 27.5131963,71.6574953 27.4618318,71.6574953 C27.3552897,71.6574953 27.275215,71.6462804 27.2184673,71.622729 C27.1646355,71.6002991 27.1365981,71.5621682 27.1365981,71.511028 C27.1365981,71.474243 27.1547664,71.4426168 27.1908785,71.4181682 C27.2276636,71.3950654 27.2989907,71.3755514 27.4046355,71.3576075 C27.5197009,71.3365234 27.6157009,71.3116262 27.6946542,71.2847103 C27.7736075,71.2571215 27.8496449,71.2243738 27.9207477,71.186243 C28.0705794,71.1137944 28.2116636,70.9771963 28.3455701,70.7771215 C28.4799252,70.5774953 28.6333458,70.269757 28.8082991,69.8521121 L31.7237383,62.9044486 C31.7580561,62.8149533 31.793271,62.7519252 31.8296075,62.7124486 C31.865271,62.6749907 31.9078879,62.6559252 31.9538692,62.6559252 C32.0011963,62.6559252 32.0431402,62.6756636 32.0814953,62.716486 C32.1194019,62.7570841 32.1604486,62.8288598 32.2037383,62.9293458 L35.0927103,70.2096449 C35.2203364,70.5288224 35.3445981,70.7672523 35.4661682,70.9247103 C35.5870654,71.0823925 35.7250093,71.1920748 35.8770841,71.256 C35.9329346,71.2806729 35.9973084,71.3033271 36.0688598,71.3201495 C36.1408598,71.3365234 36.2200374,71.3493084 36.3050467,71.3576075 C36.4286355,71.3755514 36.5089346,71.3966355 36.547514,71.4222056 C36.5851963,71.448 36.6049346,71.4834393 36.6049346,71.5300935 C36.6049346,71.5688972 36.5813832,71.6002991 36.5354019,71.622729 C36.4880748,71.6462804 36.4239252,71.6574953 36.3434019,71.6574953 C36.2411215,71.6574953 36.0051589,71.6503178 35.6350654,71.6319252 C35.2663178,71.6162243 34.9478131,71.6063551 34.6838131,71.6063551 C34.5146916,71.6063551 34.2540561,71.6200374 33.9034766,71.6456075 C33.5526729,71.6714019 33.2871028,71.6830654 33.1081121,71.6830654 C32.9979813,71.6830654 32.9143178,71.6720748 32.8566729,71.6478505 C32.7992523,71.6254206 32.7685234,71.589757 32.764486,71.5437757 C32.764486,71.5045234 32.7900561,71.4715514 32.8414206,71.4439626 C32.891215,71.4170467 32.9939439,71.3878879 33.1464673,71.3576075 C33.3976822,71.3320374 33.5807103,71.2833645 33.6921869,71.2111402 C33.8052336,71.1389159 33.8619813,71.0348411 33.8619813,70.8993645 C33.8619813,70.8047103 33.8447103,70.6811215 33.8106168,70.5288224 C33.7765234,70.374729 33.728972,70.1912523 33.669757,70.0340187 L33.0643738,68.4114393 L29.7593271,68.4114393 Z" id="Fill-5"></path>
                    <path d="M42.7276262,69.9864449 C42.7276262,70.3859215 42.7493832,70.6745944 42.8294579,70.8508935 C42.909757,71.0271925 43.0434393,71.1702953 43.2477757,71.2808748 C43.3063178,71.3064449 43.3673271,71.3362766 43.4408972,71.3539963 C43.5117757,71.3703701 43.5846729,71.3993047 43.664972,71.3993047 L43.6847103,71.3993047 C43.845757,71.3993047 43.9265047,71.4742206 43.9265047,71.551828 C43.9265047,71.5978093 43.9040748,71.6294355 43.8567477,71.6518654 C43.8094206,71.6760897 43.7419065,71.6850617 43.6519626,71.6850617 C43.6270654,71.6850617 43.5604486,71.6803514 43.4543551,71.6725009 C43.0930093,71.6467065 42.7547664,71.6325757 42.4400748,71.6325757 C42.2960748,71.6325757 42.1038505,71.6393047 41.8658692,71.6518654 C41.6281121,71.6642019 41.4614579,71.6716037 41.3681495,71.6716037 C41.271028,71.6716037 41.1940935,71.6574729 41.1386916,71.6319028 C41.0837383,71.6063327 41.0561495,71.5726879 41.0561495,71.530071 C41.0561495,71.4834168 41.0823925,71.4479776 41.1355514,71.4221832 C41.1887103,71.3966131 41.2663178,71.3833794 41.3681495,71.3833794 C41.3899065,71.3793421 41.4235514,71.3714916 41.4702056,71.357585 C41.6451589,71.316314 41.7725607,71.2710056 41.8530841,71.2243514 C42.0192897,71.131043 42.1025047,71.0002766 42.1662056,70.8322766 C42.2299065,70.6640523 42.2296822,70.3773981 42.2296822,69.9743327 L42.2296822,63.8682393 C42.2296822,63.6928374 42.0327477,63.5573607 41.9080374,63.4593421 C41.7822056,63.3622206 41.6438131,63.2857346 41.4610093,63.2298841 C41.411215,63.2168748 41.3412336,63.2022953 41.2396262,63.1845757 C41.2223551,63.1805383 41.2136075,63.1785196 41.2046355,63.1785196 C41.2005981,63.1785196 41.1947664,63.1767252 41.1815327,63.1726879 C40.998729,63.1471178 40.9081121,63.0964262 40.9081121,63.019043 C40.9081121,62.9766505 40.937271,62.9452486 40.9951402,62.9237159 C41.0514393,62.9024075 41.1434019,62.8914168 41.2660935,62.8914168 C41.3044486,62.8914168 41.428486,62.9003888 41.6384299,62.9169869 C41.8501682,62.9349308 42.043514,62.9427813 42.2164486,62.9427813 C42.2590654,62.9427813 42.3236636,62.9414355 42.4118131,62.9360523 C42.4986168,62.9322393 42.5654579,62.9293234 42.612785,62.9293234 C42.6331963,62.9255103 42.6852336,62.9190056 42.7655327,62.9077907 C42.8462804,62.8974729 42.9126729,62.8914168 42.9626916,62.8914168 C43.0483738,62.8914168 43.1282243,62.911828 43.202243,62.9517533 C43.2771589,62.9925757 43.3166355,63.055828 43.3798879,63.1399402 L48.7031776,69.839529 L48.7031776,64.4745196 C48.7031776,63.9931738 48.6477757,63.6513421 48.4782056,63.4467813 C48.3081869,63.2424449 48.0419439,63.1399402 47.6500935,63.1399402 C47.6162243,63.1399402 47.5922243,63.1273794 47.5630654,63.0991178 C47.5321121,63.071529 47.5211215,63.0412486 47.5211215,63.0064822 C47.5211215,62.9683514 47.5435514,62.9373981 47.5819065,62.9151925 C47.6198131,62.8898467 47.6731963,62.8781832 47.7418318,62.8781832 C47.8219065,62.8781832 48.0154766,62.8891738 48.3218692,62.9104822 C48.6287103,62.9322393 48.8927103,62.9427813 49.1138692,62.9427813 C49.241271,62.9427813 49.3650841,62.9414355 49.4873271,62.9360523 C49.6086729,62.9322393 49.7371963,62.9255103 49.8733458,62.9169869 C49.8850093,62.9169869 49.9022804,62.9151925 49.9233645,62.9104822 C50.042243,62.8979215 50.1265794,62.8914168 50.1725607,62.8914168 C50.2450093,62.8914168 50.301757,62.9037533 50.3383178,62.9266318 C50.3766729,62.9504075 50.3961869,62.9809121 50.3961869,63.019043 C50.3961869,63.0780336 50.3028785,63.0901458 50.1155888,63.1332112 L50.0965234,63.100015 L50.0774579,63.100015 C49.8688598,63.265772 49.7136449,63.2202393 49.6111402,63.2668935 C49.4453832,63.3568374 49.3457944,63.5003888 49.2818692,63.6571738 C49.2188411,63.8144075 49.2008972,64.1037533 49.2008972,64.4864075 L49.2008972,71.4854355 C49.2008972,71.6424449 49.1703925,71.748314 49.1378692,71.8014729 C49.1069159,71.8546318 49.044785,71.8810991 48.9678505,71.8810991 C48.900785,71.8810991 48.8312523,71.8606879 48.7700187,71.818071 C48.7076636,71.7747813 48.6462056,71.6917907 48.547514,71.5688748 L42.7276262,64.3022579 L42.7276262,69.9864449 Z" id="Fill-7"></path>
                    <polygon id="Fill-9" points="17.1025794 57.6224299 38.0168972 57.6224299 38.0168972 57.2904673 17.1025794 57.2904673"></polygon>
                    <path d="M46.4441047,44.1655626 L43.5916935,41.4226093 C46.1964785,37.445114 47.1782355,34.0523664 47.4473944,29.9028336 L49.7852636,29.9028336 L49.7852636,26.9149458 L47.5308336,26.9149458 C47.510871,25.2551327 47.3762916,22.2941607 47.2329645,21.1715439 C47.2531514,21.1675065 47.2728897,21.1827589 47.2939738,21.1782729 C47.2230953,20.7242916 47.1436935,20.3748336 47.0640673,20.0531888 C47.033114,19.877114 47.0035065,19.7299738 46.9799551,19.6097495 C46.9698617,19.613114 46.9615626,19.6189458 46.9523664,19.6200673 C46.8482916,19.2170019 46.7543103,18.8372636 46.7016,18.3471701 C44.9650766,18.6840673 42.2930019,19.1616 40.2330393,19.1616 C38.6021607,19.1616 36.9221607,19.0507963 35.2410393,18.8312075 C30.4610019,18.2085533 26.7950579,17.0839178 23.6391701,15.1289271 C24.8429832,12.404815 25.0067215,9.65244112 24.9757682,8.15860935 L22.6233196,8.15860935 C22.6233196,18.9476187 13.5401047,20.0596935 10.1552075,20.0280673 C9.74832897,20.0179738 9.35445981,19.9643664 8.96036636,19.9170393 L8.70152523,19.9334131 C8.63423551,19.9289271 8.58758131,19.9213009 8.5658243,19.922871 L8.57098318,19.9410393 L8.29083364,19.9298243 C8.29083364,19.9298243 7.74399252,23.5953196 7.63588037,26.9149458 L5.46713271,26.9149458 L5.46713271,29.9028336 L7.66548785,29.9028336 C7.87520748,33.886385 8.81681495,37.2804785 11.528815,41.4226093 L8.67819813,44.1464972 C4.75902056,39.7684037 3.43857196,33.3770019 3.43857196,27.4557308 C3.43857196,14.2075065 14.2358804,3.46986168 27.5090019,3.46986168 C27.5249271,3.46986168 27.5408523,3.51113271 27.556329,3.51113271 L27.5605907,3.51113271 L27.5650766,3.51113271 C27.5805533,3.51113271 27.5958056,3.47457196 27.6130766,3.47457196 C40.8861981,3.47457196 51.6832822,14.2344224 51.6832822,27.482871 C51.6832822,33.4039178 50.3632822,39.7872449 46.4441047,44.1655626 L46.4441047,44.1655626 Z M15.2337869,30.068815 C15.2391701,31.0647028 16.0688523,31.9215252 17.094572,31.9215252 C18.1229832,31.9215252 18.9551327,31.0647028 18.9618617,30.068815 L22.3965533,30.068815 C21.9959551,33.5544224 19.6233196,35.0058617 16.764628,35.0058617 C13.9754692,35.0058617 11.6492636,32.8904972 11.1692636,30.068815 L15.2337869,30.068815 Z M34.1964785,25.4576748 L33.0626467,27.0809271 L27.5650766,27.0809271 L27.556329,27.0809271 L21.8259364,27.0809271 L21.8147215,27.0809271 L20.681114,25.4576748 L10.6199551,24.712329 C10.6370019,24.3655626 10.6544972,24.0593944 10.6717682,23.9553196 C16.9182729,22.9062729 20.4648897,20.2027963 22.466086,17.2341981 C25.9624598,19.3006654 30.5875065,20.7853009 35.5882542,21.437114 C37.3978991,21.6733009 39.2057495,21.7921794 40.9626841,21.7921794 C42.222572,21.7921794 43.3864598,21.7298243 44.5012262,21.6147589 C44.5267963,22.0328523 44.5696374,23.4214879 44.6086654,24.6865346 L34.1964785,25.4576748 Z M43.952815,30.068815 C43.4714692,32.8904972 41.1468336,35.0058617 38.3561047,35.0058617 C35.4974131,35.0058617 33.1252262,33.5544224 32.7282168,30.068815 L36.1602168,30.068815 C36.1669458,31.0647028 36.9995439,31.9215252 38.0275065,31.9215252 C39.0518804,31.9215252 39.8824598,31.0647028 39.8876187,30.068815 L43.952815,30.068815 Z M41.8114318,38.6522916 C39.0236187,43.8062355 33.5173009,47.7177869 27.5605907,49.5364037 C21.6047776,47.7177869 16.4340112,43.6095252 13.3099738,38.6522916 C12.4867963,37.344628 12.0516561,37.1732636 11.822871,35.9909832 C13.1839178,36.8556561 14.8466467,37.3908336 16.764628,37.3908336 C21.4444037,37.3908336 25.313114,34.7162916 25.8323664,30.068815 L27.556329,30.068815 L27.5650766,30.068815 L29.288815,30.068815 C29.8098617,34.7162916 33.6783477,37.3908336 38.3561047,37.3908336 C40.276329,37.3908336 41.9374879,36.8590206 43.2987589,35.9943477 C43.0953196,37.0891514 42.6595065,37.0846654 41.8114318,38.6522916 L41.8114318,38.6522916 Z M27.6130766,-4.48598131e-05 C27.5958056,-4.48598131e-05 27.5789832,0.00152523364 27.5605907,0.00152523364 C27.5433196,0.00152523364 27.5262729,-4.48598131e-05 27.5090019,-4.48598131e-05 C12.3120673,-4.48598131e-05 6.72897196e-05,12.2971514 6.72897196e-05,27.4651514 C6.72897196e-05,35.7882168 3.72410467,43.2351701 9.58526355,48.2684411 L13.6136748,44.2330766 C17.1490766,48.4741234 22.0654879,51.6376374 27.5430953,53.1130766 L27.5430953,53.1153196 C27.5430953,53.1153196 27.5415252,53.1144224 27.5426467,53.1144224 C27.5453383,53.1144224 27.5430953,53.1153196 27.5430953,53.1153196 L27.5430953,53.1130766 C33.1866841,51.6376374 37.9546093,48.4741234 41.4906841,44.2330766 L45.5318804,48.2684411 C51.3916935,43.2351701 55.1195439,35.7882168 55.1195439,27.4651514 C55.1195439,12.2971514 42.8088897,-4.48598131e-05 27.6130766,-4.48598131e-05 L27.6130766,-4.48598131e-05 Z" id="Fill-11"></path>
                    <path d="M34.3192598,41.3007028 C34.2394093,40.8637682 31.1909607,40.8577121 29.7632972,40.3599925 L28.8741757,40.3599925 C28.7111103,40.8577121 28.2176523,41.2210766 27.6183252,41.2858991 C27.0172037,41.2210766 26.5253159,40.8577121 26.3624748,40.3599925 L25.4722318,40.3599925 C24.0145121,40.8577121 20.9552972,40.9054879 20.9256897,41.3291888 C22.1445308,41.7113944 25.6285682,42.6009645 27.4967551,42.6009645 C29.4862879,42.6009645 33.0409794,41.7540112 34.3192598,41.3007028" id="Fill-12"></path>
                    <path d="M20.7172935,41.9078804 C20.7172935,41.9078804 20.7412935,42.2167402 20.8168822,42.3416748 C20.8168822,42.3416748 24.0573308,46.3133383 27.5431626,46.3133383 L27.5431626,46.3200673 C27.5431626,46.3200673 27.5931813,46.3173757 27.6153869,46.3144598 C27.6380411,46.3173757 27.6853682,46.3133383 27.6853682,46.3133383 C31.2763963,46.3133383 34.3950505,42.2595813 34.3950505,42.2595813 C34.4726579,42.1346467 34.5305271,41.8300486 34.5305271,41.8300486 C32.5098168,42.4899364 30.6183028,43.8738617 27.4962841,43.8738617 C24.374714,43.8738617 22.7422654,42.5462355 20.7172935,41.9078804" id="Fill-13"></path>
                    <polygon id="Fill-14" points="30.1035589 37.1936748 29.6392598 35.5838804 27.609129 36.1841047 25.5240449 35.5479925 25.0514467 37.1508336 27.6024 38.8247776"></polygon>
                </g>
            </g>
        </g>
    </g>
</svg>